<?xml version="1.0" encoding="iso-8859-1"?>
<!-- Generator: Adobe Illustrator 16.0.0, SVG Export Plug-In . SVG Version: 6.00 Build 0)  -->
<!DOCTYPE svg PUBLIC "-//W3C//DTD SVG 1.1//EN" "http://www.w3.org/Graphics/SVG/1.1/DTD/svg11.dtd">
<svg version="1.1" id="Layer_1" xmlns="http://www.w3.org/2000/svg" xmlns:xlink="http://www.w3.org/1999/xlink" x="0px" y="0px"
	 width="512px" height="512px" viewBox="0 0 512 512" style="enable-background:new 0 0 512 512;" xml:space="preserve">
<g>
	<path d="M194.6,195.15c0-51.967-42.279-94.246-94.247-94.246S6.105,143.184,6.105,195.15c0,15.229,3.635,29.623,10.075,42.367
		l84.172,173.578l84.184-173.604C190.97,224.754,194.6,210.369,194.6,195.15z M100.353,247.307
		c-28.759,0-52.158-23.397-52.158-52.156c0-28.758,23.399-52.156,52.158-52.156c28.758,0,52.155,23.398,52.155,52.156
		C152.508,223.909,129.11,247.307,100.353,247.307z"/>
	<path d="M448.653,103.574c-31.563,0-57.24,25.679-57.24,57.241c0,9.249,2.207,17.991,6.119,25.731l51.121,105.422l51.129-105.438
		c3.907-7.737,6.112-16.474,6.112-25.716C505.895,129.253,480.216,103.574,448.653,103.574z M448.653,192.492
		c-17.466,0-31.678-14.211-31.678-31.677s14.212-31.677,31.678-31.677s31.677,14.211,31.677,31.677S466.119,192.492,448.653,192.492
		z"/>
	<polygon points="256.267,263.092 246.487,262.92 241.581,273.09 199.614,360.086 138.729,358.754 113.349,411.096 214.599,408.882 
		232.502,408.49 237.147,393.529 267.911,294.455 437.415,291.49 425.076,266.045 	"/>
</g>
</svg>
