<?xml version="1.0" encoding="utf-8"?>
<!-- Generator: Adobe Illustrator 15.0.0, SVG Export Plug-In . SVG Version: 6.00 Build 0)  -->
<!DOCTYPE svg PUBLIC "-//W3C//DTD SVG 1.1//EN" "http://www.w3.org/Graphics/SVG/1.1/DTD/svg11.dtd">
<svg version="1.1" id="Layer_1" xmlns="http://www.w3.org/2000/svg" xmlns:xlink="http://www.w3.org/1999/xlink" x="0px" y="0px"
	 width="26px" height="26px" viewBox="0 0 26 26" enable-background="new 0 0 26 26" xml:space="preserve">
<g>
	<path fill-rule="evenodd" clip-rule="evenodd" d="M13.748,4.172C9.029,4.172,5.202,8,5.202,12.72c0,4.721,3.827,8.547,8.546,8.547
		c4.721,0,8.548-3.826,8.548-8.547C22.296,8,18.469,4.172,13.748,4.172z M14.111,19.849v-1.274c0-0.201-0.161-0.363-0.363-0.363
		c-0.2,0-0.362,0.162-0.362,0.363v1.274C9.73,19.664,6.804,16.74,6.62,13.082h1.217c0.201,0,0.363-0.162,0.363-0.362
		c0-0.2-0.163-0.363-0.363-0.363H6.62c0.184-3.658,3.111-6.584,6.77-6.767c0,0.006-0.003,0.011-0.003,0.017v1.329
		c0,0.201,0.162,0.363,0.362,0.363c0.202,0,0.363-0.162,0.363-0.363V5.607c0-0.006-0.002-0.011-0.002-0.017
		c3.656,0.183,6.584,3.109,6.768,6.767H19.65c-0.2,0-0.362,0.163-0.362,0.363c0,0.201,0.162,0.362,0.362,0.362h1.227
		C20.693,16.74,17.769,19.664,14.111,19.849z"/>
	<path fill-rule="evenodd" clip-rule="evenodd" d="M17.897,10.815l-3.735,1.609c-0.193-0.135-0.445-0.181-0.678-0.081
		c-0.076,0.032-0.138,0.082-0.195,0.136l-3.7-1.472c-0.186-0.074-0.396,0.018-0.47,0.204c-0.075,0.186,0.016,0.397,0.203,0.471
		l3.777,1.502c0.008,0.029,0.005,0.059,0.017,0.086c0.155,0.357,0.57,0.522,0.927,0.368c0.232-0.101,0.371-0.313,0.406-0.547
		l3.736-1.61c0.184-0.078,0.269-0.292,0.188-0.477C18.294,10.822,18.081,10.736,17.897,10.815z"/>
</g>
</svg>
